# xmcd
#
# Track frame offsets: 
#        150
#        13546
#        25184
#        35405
#        46040
#        58475
#        70182
#        81170
#        95502
#        105526
#        117455
#        128875
#        138800
#        150829
#        162870
#        173346
#        183917
#        196471
#        207903
#        219652
#        230426
#        242030
#        252817
#        264376
#        276905
#        287500
#        297409
#        310424
#        323815
#        336024
#
# Disc length: 4637 seconds
#
# Revision: 2
# Processed by: cddbd v1.5.2PL0 Copyright (c) Steve Scherf et al.
# Submitted via: ExactAudioCopyFreeDBPlugin 1.0
#
DISCID=a8121b1e
DTITLE=Wilson Pickett - Funky Midnight Mover:  The Atlantic Studio Rec
DTITLE=ordings, 1962 - 1978 [box set]
DYEAR=2009
DGENRE=Soul
TTITLE0=I Found a Love (as lead vocalist for "The Falcons")
TTITLE1=Let's Kiss and Make Up (as lead vocalist for "The Falcons")
TTITLE2=Take This Love I've Got (as lead vocalist for "The Falcons")
TTITLE3=My Heart Belongs to You
TTITLE4=Let Me Be Your Boy
TTITLE5=If You Need Me
TTITLE6=Baby Call on Me
TTITLE7=It's Too Late
TTITLE8=I'm Gonna Love You
TTITLE9=I'm Down to My Last Heartbreak
TTITLE10=I Can't Stop
TTITLE11=Baby, Don't You Weep
TTITLE12=Peace Breaker
TTITLE13=I'll Never Be the Same
TTITLE14=Give All Your Lovin' Right Now
TTITLE15=I'm Gonna Cry (Cry Baby)
TTITLE16=For Better or Worse
TTITLE17=Teardrops Will Fall (with Tami Lynn)
TTITLE18=Come Home Baby (with Tami Lynn)
TTITLE19=Take a Little Love
TTITLE20=Don't Fight It
TTITLE21=That's a Man's Way
TTITLE22=In the Midnight Hour
TTITLE23=I'm Not Tired
TTITLE24=It's All Over
TTITLE25=Danger Zone
TTITLE26=I'm Drifting
TTITLE27=634-5789 (Soulsville U.S.A.)
TTITLE28=Ninety-Nine and a Half (Won't Do)
TTITLE29=You're So Fine
EXTD=
EXTT0=
EXTT1=
EXTT2=
EXTT3=
EXTT4=
EXTT5=
EXTT6=
EXTT7=
EXTT8=
EXTT9=
EXTT10=
EXTT11=
EXTT12=
EXTT13=
EXTT14=
EXTT15=
EXTT16=
EXTT17=
EXTT18=
EXTT19=
EXTT20=
EXTT21=
EXTT22=
EXTT23=
EXTT24=
EXTT25=
EXTT26=
EXTT27=
EXTT28=
EXTT29=
PLAYORDER=
